<mxfile host="www.draw.io" modified="2020-02-15T01:47:50.910Z" agent="Mozilla/5.0 (Windows NT 10.0; Win64; x64) AppleWebKit/537.36 (KHTML, like Gecko) Chrome/80.0.3987.106 Safari/537.36" etag="w6UzezJUHR2kEhmpGIdJ" version="12.7.0" type="github">
  <diagram id="e7e014a7-5840-1c2e-5031-d8a46d1fe8dd" name="Page-1">
    <mxGraphModel dx="1673" dy="1760" grid="1" gridSize="10" guides="1" tooltips="1" connect="1" arrows="1" fold="1" page="1" pageScale="1" pageWidth="1169" pageHeight="826" background="#ffffff" math="0" shadow="0">
      <root>
        <mxCell id="0"/>
        <mxCell id="1" parent="0"/>
        <mxCell id="ED42qZIdBEckQJyKbsHn-58" style="orthogonalLoop=1;jettySize=auto;html=1;entryX=0;entryY=0.5;entryDx=0;entryDy=0;rounded=1;strokeColor=#000000;" parent="1" source="ED42qZIdBEckQJyKbsHn-43" target="ED42qZIdBEckQJyKbsHn-53" edge="1">
          <mxGeometry relative="1" as="geometry"/>
        </mxCell>
        <mxCell id="ED42qZIdBEckQJyKbsHn-59" style="edgeStyle=none;rounded=1;orthogonalLoop=1;jettySize=auto;html=1;entryX=0.012;entryY=0.562;entryDx=0;entryDy=0;entryPerimeter=0;strokeColor=#000000;" parent="1" source="ED42qZIdBEckQJyKbsHn-43" target="ED42qZIdBEckQJyKbsHn-54" edge="1">
          <mxGeometry relative="1" as="geometry"/>
        </mxCell>
        <mxCell id="ED42qZIdBEckQJyKbsHn-60" style="edgeStyle=none;rounded=1;orthogonalLoop=1;jettySize=auto;html=1;entryX=0;entryY=0.5;entryDx=0;entryDy=0;strokeColor=#000000;" parent="1" source="ED42qZIdBEckQJyKbsHn-43" target="ED42qZIdBEckQJyKbsHn-55" edge="1">
          <mxGeometry relative="1" as="geometry"/>
        </mxCell>
        <mxCell id="ED42qZIdBEckQJyKbsHn-73" style="edgeStyle=none;rounded=1;orthogonalLoop=1;jettySize=auto;html=1;entryX=0;entryY=0.5;entryDx=0;entryDy=0;endArrow=openThin;endFill=0;strokeColor=#000000;" parent="1" source="ED42qZIdBEckQJyKbsHn-43" target="ED42qZIdBEckQJyKbsHn-71" edge="1">
          <mxGeometry relative="1" as="geometry"/>
        </mxCell>
        <mxCell id="ED42qZIdBEckQJyKbsHn-43" value="клиент" style="shape=umlActor;verticalLabelPosition=bottom;labelBackgroundColor=#ffffff;verticalAlign=top;html=1;outlineConnect=0;labelPosition=center;align=center;" parent="1" vertex="1">
          <mxGeometry x="70" y="262.52" width="30" height="60" as="geometry"/>
        </mxCell>
        <mxCell id="ED42qZIdBEckQJyKbsHn-68" style="edgeStyle=none;rounded=1;orthogonalLoop=1;jettySize=auto;html=1;entryX=0;entryY=0.5;entryDx=0;entryDy=0;endArrow=openThin;endFill=0;strokeColor=#000000;dashed=1;" parent="1" source="ED42qZIdBEckQJyKbsHn-53" target="ED42qZIdBEckQJyKbsHn-67" edge="1">
          <mxGeometry relative="1" as="geometry"/>
        </mxCell>
        <mxCell id="ED42qZIdBEckQJyKbsHn-77" style="edgeStyle=none;rounded=1;orthogonalLoop=1;jettySize=auto;html=1;entryX=0;entryY=0.5;entryDx=0;entryDy=0;dashed=1;endArrow=openThin;endFill=0;strokeColor=#000000;" parent="1" source="ED42qZIdBEckQJyKbsHn-53" target="ED42qZIdBEckQJyKbsHn-74" edge="1">
          <mxGeometry relative="1" as="geometry"/>
        </mxCell>
        <mxCell id="ED42qZIdBEckQJyKbsHn-78" style="edgeStyle=none;rounded=1;orthogonalLoop=1;jettySize=auto;html=1;entryX=0;entryY=0.5;entryDx=0;entryDy=0;dashed=1;endArrow=openThin;endFill=0;strokeColor=#000000;" parent="1" source="ED42qZIdBEckQJyKbsHn-53" target="ED42qZIdBEckQJyKbsHn-75" edge="1">
          <mxGeometry relative="1" as="geometry"/>
        </mxCell>
        <mxCell id="ED42qZIdBEckQJyKbsHn-53" value="&lt;div align=&quot;center&quot;&gt;Заказать&lt;/div&gt;" style="ellipse;whiteSpace=wrap;html=1;align=center;" parent="1" vertex="1">
          <mxGeometry x="160" y="190" width="70" height="60" as="geometry"/>
        </mxCell>
        <mxCell id="ED42qZIdBEckQJyKbsHn-54" value="Отменить заказ&lt;br&gt;" style="ellipse;whiteSpace=wrap;html=1;" parent="1" vertex="1">
          <mxGeometry x="160" y="260" width="70" height="50" as="geometry"/>
        </mxCell>
        <mxCell id="ED42qZIdBEckQJyKbsHn-65" style="edgeStyle=none;rounded=1;orthogonalLoop=1;jettySize=auto;html=1;entryX=0;entryY=0.5;entryDx=0;entryDy=0;strokeColor=#000000;dashed=1;endArrow=openThin;endFill=0;" parent="1" source="ED42qZIdBEckQJyKbsHn-55" target="ED42qZIdBEckQJyKbsHn-62" edge="1">
          <mxGeometry relative="1" as="geometry"/>
        </mxCell>
        <mxCell id="ED42qZIdBEckQJyKbsHn-66" style="edgeStyle=none;rounded=1;orthogonalLoop=1;jettySize=auto;html=1;entryX=0;entryY=0.5;entryDx=0;entryDy=0;strokeColor=#000000;endArrow=openThin;endFill=0;dashed=1;" parent="1" source="ED42qZIdBEckQJyKbsHn-55" target="ED42qZIdBEckQJyKbsHn-63" edge="1">
          <mxGeometry relative="1" as="geometry"/>
        </mxCell>
        <mxCell id="ED42qZIdBEckQJyKbsHn-55" value="Оплатить" style="ellipse;whiteSpace=wrap;html=1;" parent="1" vertex="1">
          <mxGeometry x="150" y="322.52" width="90" height="60" as="geometry"/>
        </mxCell>
        <mxCell id="ED42qZIdBEckQJyKbsHn-62" value="Предоплата" style="ellipse;whiteSpace=wrap;html=1;" parent="1" vertex="1">
          <mxGeometry x="300" y="300" width="80" height="60" as="geometry"/>
        </mxCell>
        <mxCell id="ED42qZIdBEckQJyKbsHn-63" value="Оплатить при получении" style="ellipse;whiteSpace=wrap;html=1;" parent="1" vertex="1">
          <mxGeometry x="310" y="370" width="80" height="60" as="geometry"/>
        </mxCell>
        <mxCell id="ED42qZIdBEckQJyKbsHn-67" value="По телефону" style="ellipse;whiteSpace=wrap;html=1;" parent="1" vertex="1">
          <mxGeometry x="280" y="70" width="90" height="50" as="geometry"/>
        </mxCell>
        <mxCell id="ED42qZIdBEckQJyKbsHn-71" value="Посмотреть каталог еды" style="ellipse;whiteSpace=wrap;html=1;" parent="1" vertex="1">
          <mxGeometry x="150" y="410" width="90" height="60" as="geometry"/>
        </mxCell>
        <mxCell id="ED42qZIdBEckQJyKbsHn-74" value="Через приложение" style="ellipse;whiteSpace=wrap;html=1;" parent="1" vertex="1">
          <mxGeometry x="280" y="150" width="90" height="50" as="geometry"/>
        </mxCell>
        <mxCell id="ED42qZIdBEckQJyKbsHn-75" value="Лично" style="ellipse;whiteSpace=wrap;html=1;" parent="1" vertex="1">
          <mxGeometry x="280" y="220" width="90" height="50" as="geometry"/>
        </mxCell>
        <mxCell id="ED42qZIdBEckQJyKbsHn-84" value="&amp;nbsp;Сервис доставки еды " style="swimlane;html=1;childLayout=stackLayout;startSize=20;rounded=0;shadow=0;comic=0;labelBackgroundColor=none;strokeWidth=1;fontFamily=Verdana;fontSize=12;align=center;" parent="1" vertex="1">
          <mxGeometry x="470" y="30" width="1010" height="990" as="geometry"/>
        </mxCell>
        <mxCell id="ED42qZIdBEckQJyKbsHn-85" value="клиент" style="swimlane;html=1;startSize=20;" parent="ED42qZIdBEckQJyKbsHn-84" vertex="1">
          <mxGeometry y="20" width="260" height="970" as="geometry"/>
        </mxCell>
        <mxCell id="ED42qZIdBEckQJyKbsHn-112" value="" style="ellipse;whiteSpace=wrap;html=1;rounded=0;shadow=0;comic=0;labelBackgroundColor=none;strokeWidth=1;fillColor=#000000;fontFamily=Verdana;fontSize=12;align=center;" parent="ED42qZIdBEckQJyKbsHn-85" vertex="1">
          <mxGeometry x="110" y="50" width="40" height="40" as="geometry"/>
        </mxCell>
        <mxCell id="ED42qZIdBEckQJyKbsHn-153" style="edgeStyle=none;rounded=1;orthogonalLoop=1;jettySize=auto;html=1;entryX=0.5;entryY=0;entryDx=0;entryDy=0;endArrow=openThin;endFill=0;strokeColor=#000000;" parent="ED42qZIdBEckQJyKbsHn-85" source="ED42qZIdBEckQJyKbsHn-146" target="ED42qZIdBEckQJyKbsHn-152" edge="1">
          <mxGeometry relative="1" as="geometry"/>
        </mxCell>
        <mxCell id="ED42qZIdBEckQJyKbsHn-146" value="Заказ" style="rounded=1;whiteSpace=wrap;html=1;" parent="ED42qZIdBEckQJyKbsHn-85" vertex="1">
          <mxGeometry x="70" y="150" width="120" height="60" as="geometry"/>
        </mxCell>
        <mxCell id="ED42qZIdBEckQJyKbsHn-147" style="edgeStyle=none;rounded=1;orthogonalLoop=1;jettySize=auto;html=1;endArrow=openThin;endFill=0;strokeColor=#000000;" parent="ED42qZIdBEckQJyKbsHn-85" source="ED42qZIdBEckQJyKbsHn-112" target="ED42qZIdBEckQJyKbsHn-146" edge="1">
          <mxGeometry relative="1" as="geometry"/>
        </mxCell>
        <mxCell id="ED42qZIdBEckQJyKbsHn-157" style="edgeStyle=orthogonalEdgeStyle;rounded=0;orthogonalLoop=1;jettySize=auto;html=1;entryX=0.5;entryY=0;entryDx=0;entryDy=0;endArrow=openThin;endFill=0;strokeColor=#000000;" parent="ED42qZIdBEckQJyKbsHn-85" source="ED42qZIdBEckQJyKbsHn-152" target="ED42qZIdBEckQJyKbsHn-156" edge="1">
          <mxGeometry relative="1" as="geometry"/>
        </mxCell>
        <mxCell id="ED42qZIdBEckQJyKbsHn-152" value="" style="rhombus;whiteSpace=wrap;html=1;" parent="ED42qZIdBEckQJyKbsHn-85" vertex="1">
          <mxGeometry x="115" y="250" width="30" height="30" as="geometry"/>
        </mxCell>
        <mxCell id="ED42qZIdBEckQJyKbsHn-156" value="" style="rhombus;whiteSpace=wrap;html=1;" parent="ED42qZIdBEckQJyKbsHn-85" vertex="1">
          <mxGeometry x="115" y="300" width="30" height="30" as="geometry"/>
        </mxCell>
        <mxCell id="ED42qZIdBEckQJyKbsHn-161" value="Воспользоваться телефоном" style="text;html=1;strokeColor=none;fillColor=none;align=center;verticalAlign=middle;whiteSpace=wrap;rounded=0;" parent="ED42qZIdBEckQJyKbsHn-85" vertex="1">
          <mxGeometry x="160" y="230" width="50" height="30" as="geometry"/>
        </mxCell>
        <mxCell id="ED42qZIdBEckQJyKbsHn-162" value="Прибыть в&amp;nbsp; ресторан" style="text;html=1;strokeColor=none;fillColor=none;align=center;verticalAlign=middle;whiteSpace=wrap;rounded=0;" parent="ED42qZIdBEckQJyKbsHn-85" vertex="1">
          <mxGeometry x="170" y="280" width="70" height="30" as="geometry"/>
        </mxCell>
        <mxCell id="ED42qZIdBEckQJyKbsHn-169" value="Оплатить заказ" style="rounded=1;whiteSpace=wrap;html=1;" parent="ED42qZIdBEckQJyKbsHn-85" vertex="1">
          <mxGeometry x="70" y="400" width="120" height="60" as="geometry"/>
        </mxCell>
        <mxCell id="ED42qZIdBEckQJyKbsHn-149" value="" style="shape=mxgraph.bpmn.shape;html=1;verticalLabelPosition=bottom;labelBackgroundColor=#ffffff;verticalAlign=top;perimeter=ellipsePerimeter;outline=end;symbol=terminate;rounded=0;shadow=0;comic=0;strokeWidth=1;fontFamily=Verdana;fontSize=12;align=center;" parent="ED42qZIdBEckQJyKbsHn-85" vertex="1">
          <mxGeometry x="94" y="870" width="40" height="40" as="geometry"/>
        </mxCell>
        <mxCell id="ED42qZIdBEckQJyKbsHn-202" style="edgeStyle=orthogonalEdgeStyle;rounded=0;orthogonalLoop=1;jettySize=auto;html=1;endArrow=openThin;endFill=0;strokeColor=#000000;" parent="ED42qZIdBEckQJyKbsHn-85" source="ED42qZIdBEckQJyKbsHn-200" target="ED42qZIdBEckQJyKbsHn-149" edge="1">
          <mxGeometry relative="1" as="geometry"/>
        </mxCell>
        <mxCell id="ED42qZIdBEckQJyKbsHn-200" value="Принять " style="rounded=1;whiteSpace=wrap;html=1;strokeWidth=1;" parent="ED42qZIdBEckQJyKbsHn-85" vertex="1">
          <mxGeometry x="70" y="660" width="120" height="60" as="geometry"/>
        </mxCell>
        <mxCell id="ED42qZIdBEckQJyKbsHn-159" style="edgeStyle=orthogonalEdgeStyle;rounded=0;orthogonalLoop=1;jettySize=auto;html=1;entryX=0;entryY=0.5;entryDx=0;entryDy=0;endArrow=openThin;endFill=0;strokeColor=#000000;" parent="ED42qZIdBEckQJyKbsHn-84" source="ED42qZIdBEckQJyKbsHn-156" target="ED42qZIdBEckQJyKbsHn-158" edge="1">
          <mxGeometry relative="1" as="geometry"/>
        </mxCell>
        <mxCell id="ED42qZIdBEckQJyKbsHn-110" value="ресторан" style="swimlane;html=1;startSize=20;" parent="ED42qZIdBEckQJyKbsHn-84" vertex="1">
          <mxGeometry x="260" y="20" width="250" height="970" as="geometry"/>
        </mxCell>
        <mxCell id="ED42qZIdBEckQJyKbsHn-268" style="edgeStyle=orthogonalEdgeStyle;rounded=0;orthogonalLoop=1;jettySize=auto;html=1;entryX=0.5;entryY=0;entryDx=0;entryDy=0;endArrow=openThin;endFill=0;strokeColor=#000000;" parent="ED42qZIdBEckQJyKbsHn-110" source="ED42qZIdBEckQJyKbsHn-158" target="ED42qZIdBEckQJyKbsHn-267" edge="1">
          <mxGeometry relative="1" as="geometry"/>
        </mxCell>
        <mxCell id="ED42qZIdBEckQJyKbsHn-158" value="Принять заказ" style="rounded=1;whiteSpace=wrap;html=1;" parent="ED42qZIdBEckQJyKbsHn-110" vertex="1">
          <mxGeometry x="70" y="290" width="120" height="60" as="geometry"/>
        </mxCell>
        <mxCell id="ED42qZIdBEckQJyKbsHn-271" style="edgeStyle=orthogonalEdgeStyle;rounded=0;orthogonalLoop=1;jettySize=auto;html=1;endArrow=openThin;endFill=0;strokeColor=#000000;" parent="ED42qZIdBEckQJyKbsHn-110" source="ED42qZIdBEckQJyKbsHn-171" target="ED42qZIdBEckQJyKbsHn-173" edge="1">
          <mxGeometry relative="1" as="geometry"/>
        </mxCell>
        <mxCell id="ED42qZIdBEckQJyKbsHn-171" value="Подтвердить оплату" style="rounded=1;whiteSpace=wrap;html=1;" parent="ED42qZIdBEckQJyKbsHn-110" vertex="1">
          <mxGeometry x="50" y="490" width="120" height="60" as="geometry"/>
        </mxCell>
        <mxCell id="ED42qZIdBEckQJyKbsHn-173" value="Приготовить заказ" style="rounded=1;whiteSpace=wrap;html=1;" parent="ED42qZIdBEckQJyKbsHn-110" vertex="1">
          <mxGeometry x="50" y="580" width="120" height="60" as="geometry"/>
        </mxCell>
        <mxCell id="ED42qZIdBEckQJyKbsHn-267" value="Ожидать оплаты" style="rounded=1;whiteSpace=wrap;html=1;strokeWidth=1;" parent="ED42qZIdBEckQJyKbsHn-110" vertex="1">
          <mxGeometry x="50" y="380" width="130" height="60" as="geometry"/>
        </mxCell>
        <mxCell id="ED42qZIdBEckQJyKbsHn-172" style="edgeStyle=orthogonalEdgeStyle;rounded=0;orthogonalLoop=1;jettySize=auto;html=1;entryX=0;entryY=0.5;entryDx=0;entryDy=0;endArrow=openThin;endFill=0;strokeColor=#000000;" parent="ED42qZIdBEckQJyKbsHn-84" source="ED42qZIdBEckQJyKbsHn-169" target="ED42qZIdBEckQJyKbsHn-171" edge="1">
          <mxGeometry relative="1" as="geometry"/>
        </mxCell>
        <mxCell id="ED42qZIdBEckQJyKbsHn-155" style="rounded=0;orthogonalLoop=1;jettySize=auto;html=1;entryX=0;entryY=0.5;entryDx=0;entryDy=0;endArrow=openThin;endFill=0;strokeColor=#000000;edgeStyle=orthogonalEdgeStyle;" parent="ED42qZIdBEckQJyKbsHn-84" source="ED42qZIdBEckQJyKbsHn-152" target="ED42qZIdBEckQJyKbsHn-150" edge="1">
          <mxGeometry relative="1" as="geometry"/>
        </mxCell>
        <mxCell id="ED42qZIdBEckQJyKbsHn-166" style="edgeStyle=orthogonalEdgeStyle;rounded=0;orthogonalLoop=1;jettySize=auto;html=1;entryX=1;entryY=0.5;entryDx=0;entryDy=0;endArrow=openThin;endFill=0;strokeColor=#000000;" parent="ED42qZIdBEckQJyKbsHn-84" source="ED42qZIdBEckQJyKbsHn-164" target="ED42qZIdBEckQJyKbsHn-158" edge="1">
          <mxGeometry relative="1" as="geometry"/>
        </mxCell>
        <mxCell id="ED42qZIdBEckQJyKbsHn-94" value="диспетчер" style="swimlane;html=1;startSize=20;" parent="ED42qZIdBEckQJyKbsHn-84" vertex="1">
          <mxGeometry x="510" y="20" width="250" height="970" as="geometry"/>
        </mxCell>
        <mxCell id="ED42qZIdBEckQJyKbsHn-165" style="edgeStyle=orthogonalEdgeStyle;rounded=0;orthogonalLoop=1;jettySize=auto;html=1;entryX=0.5;entryY=0;entryDx=0;entryDy=0;endArrow=openThin;endFill=0;strokeColor=#000000;" parent="ED42qZIdBEckQJyKbsHn-94" source="ED42qZIdBEckQJyKbsHn-150" target="ED42qZIdBEckQJyKbsHn-164" edge="1">
          <mxGeometry relative="1" as="geometry"/>
        </mxCell>
        <mxCell id="ED42qZIdBEckQJyKbsHn-150" value="Принять заказ" style="rounded=1;whiteSpace=wrap;html=1;" parent="ED42qZIdBEckQJyKbsHn-94" vertex="1">
          <mxGeometry x="65" y="150" width="120" height="60" as="geometry"/>
        </mxCell>
        <mxCell id="ED42qZIdBEckQJyKbsHn-164" value="Передать заказ" style="rounded=1;whiteSpace=wrap;html=1;" parent="ED42qZIdBEckQJyKbsHn-94" vertex="1">
          <mxGeometry x="65" y="260" width="120" height="60" as="geometry"/>
        </mxCell>
        <mxCell id="ED42qZIdBEckQJyKbsHn-201" style="edgeStyle=orthogonalEdgeStyle;rounded=0;orthogonalLoop=1;jettySize=auto;html=1;entryX=1;entryY=0.5;entryDx=0;entryDy=0;endArrow=openThin;endFill=0;strokeColor=#000000;" parent="ED42qZIdBEckQJyKbsHn-84" source="ED42qZIdBEckQJyKbsHn-197" target="ED42qZIdBEckQJyKbsHn-200" edge="1">
          <mxGeometry relative="1" as="geometry"/>
        </mxCell>
        <mxCell id="ED42qZIdBEckQJyKbsHn-203" style="edgeStyle=orthogonalEdgeStyle;rounded=0;orthogonalLoop=1;jettySize=auto;html=1;entryX=0;entryY=0.5;entryDx=0;entryDy=0;endArrow=openThin;endFill=0;strokeColor=#000000;" parent="ED42qZIdBEckQJyKbsHn-84" source="ED42qZIdBEckQJyKbsHn-173" target="ED42qZIdBEckQJyKbsHn-177" edge="1">
          <mxGeometry relative="1" as="geometry"/>
        </mxCell>
        <mxCell id="ED42qZIdBEckQJyKbsHn-148" value="курьер" style="swimlane;html=1;startSize=20;" parent="ED42qZIdBEckQJyKbsHn-84" vertex="1">
          <mxGeometry x="760" y="20" width="250" height="970" as="geometry"/>
        </mxCell>
        <mxCell id="ED42qZIdBEckQJyKbsHn-196" style="edgeStyle=orthogonalEdgeStyle;rounded=0;orthogonalLoop=1;jettySize=auto;html=1;entryX=0.5;entryY=0;entryDx=0;entryDy=0;endArrow=openThin;endFill=0;strokeColor=#000000;" parent="ED42qZIdBEckQJyKbsHn-148" source="ED42qZIdBEckQJyKbsHn-177" target="ED42qZIdBEckQJyKbsHn-191" edge="1">
          <mxGeometry relative="1" as="geometry"/>
        </mxCell>
        <mxCell id="ED42qZIdBEckQJyKbsHn-177" value="Получить заказ" style="rounded=1;whiteSpace=wrap;html=1;" parent="ED42qZIdBEckQJyKbsHn-148" vertex="1">
          <mxGeometry x="65" y="420" width="120" height="60" as="geometry"/>
        </mxCell>
        <mxCell id="ED42qZIdBEckQJyKbsHn-259" style="edgeStyle=orthogonalEdgeStyle;rounded=0;orthogonalLoop=1;jettySize=auto;html=1;entryX=0.5;entryY=0;entryDx=0;entryDy=0;endArrow=openThin;endFill=0;strokeColor=#000000;" parent="ED42qZIdBEckQJyKbsHn-148" source="ED42qZIdBEckQJyKbsHn-183" target="ED42qZIdBEckQJyKbsHn-205" edge="1">
          <mxGeometry relative="1" as="geometry"/>
        </mxCell>
        <mxCell id="ED42qZIdBEckQJyKbsHn-183" value="Принять" style="rounded=1;whiteSpace=wrap;html=1;strokeWidth=1;" parent="ED42qZIdBEckQJyKbsHn-148" vertex="1">
          <mxGeometry x="20" y="590" width="90" height="40" as="geometry"/>
        </mxCell>
        <mxCell id="ED42qZIdBEckQJyKbsHn-193" style="edgeStyle=orthogonalEdgeStyle;rounded=0;orthogonalLoop=1;jettySize=auto;html=1;endArrow=openThin;endFill=0;strokeColor=#000000;" parent="ED42qZIdBEckQJyKbsHn-148" source="ED42qZIdBEckQJyKbsHn-184" target="ED42qZIdBEckQJyKbsHn-192" edge="1">
          <mxGeometry relative="1" as="geometry"/>
        </mxCell>
        <mxCell id="ED42qZIdBEckQJyKbsHn-184" value="Отказать" style="rounded=1;whiteSpace=wrap;html=1;strokeWidth=1;" parent="ED42qZIdBEckQJyKbsHn-148" vertex="1">
          <mxGeometry x="160" y="590" width="90" height="40" as="geometry"/>
        </mxCell>
        <mxCell id="ED42qZIdBEckQJyKbsHn-194" style="edgeStyle=orthogonalEdgeStyle;rounded=0;orthogonalLoop=1;jettySize=auto;html=1;entryX=0.5;entryY=0;entryDx=0;entryDy=0;endArrow=openThin;endFill=0;strokeColor=#000000;" parent="ED42qZIdBEckQJyKbsHn-148" source="ED42qZIdBEckQJyKbsHn-191" target="ED42qZIdBEckQJyKbsHn-184" edge="1">
          <mxGeometry relative="1" as="geometry"/>
        </mxCell>
        <mxCell id="ED42qZIdBEckQJyKbsHn-195" style="edgeStyle=orthogonalEdgeStyle;rounded=0;orthogonalLoop=1;jettySize=auto;html=1;entryX=0.5;entryY=0;entryDx=0;entryDy=0;endArrow=openThin;endFill=0;strokeColor=#000000;" parent="ED42qZIdBEckQJyKbsHn-148" source="ED42qZIdBEckQJyKbsHn-191" target="ED42qZIdBEckQJyKbsHn-183" edge="1">
          <mxGeometry relative="1" as="geometry"/>
        </mxCell>
        <mxCell id="ED42qZIdBEckQJyKbsHn-191" value="" style="rhombus;whiteSpace=wrap;html=1;strokeWidth=1;" parent="ED42qZIdBEckQJyKbsHn-148" vertex="1">
          <mxGeometry x="110" y="520" width="40" height="40" as="geometry"/>
        </mxCell>
        <mxCell id="ED42qZIdBEckQJyKbsHn-192" value="Ждать нового заказа" style="rounded=1;whiteSpace=wrap;html=1;strokeWidth=1;" parent="ED42qZIdBEckQJyKbsHn-148" vertex="1">
          <mxGeometry x="150" y="920" width="90" height="40" as="geometry"/>
        </mxCell>
        <mxCell id="ED42qZIdBEckQJyKbsHn-197" value="Доставить" style="rounded=1;whiteSpace=wrap;html=1;strokeWidth=1;" parent="ED42qZIdBEckQJyKbsHn-148" vertex="1">
          <mxGeometry x="65" y="820" width="85" height="44" as="geometry"/>
        </mxCell>
        <mxCell id="ED42qZIdBEckQJyKbsHn-257" style="edgeStyle=orthogonalEdgeStyle;rounded=0;orthogonalLoop=1;jettySize=auto;html=1;endArrow=openThin;endFill=0;strokeColor=#000000;" parent="ED42qZIdBEckQJyKbsHn-148" source="ED42qZIdBEckQJyKbsHn-205" target="ED42qZIdBEckQJyKbsHn-207" edge="1">
          <mxGeometry relative="1" as="geometry"/>
        </mxCell>
        <mxCell id="ED42qZIdBEckQJyKbsHn-258" style="edgeStyle=orthogonalEdgeStyle;rounded=0;orthogonalLoop=1;jettySize=auto;html=1;entryX=0.5;entryY=0;entryDx=0;entryDy=0;endArrow=openThin;endFill=0;strokeColor=#000000;" parent="ED42qZIdBEckQJyKbsHn-148" source="ED42qZIdBEckQJyKbsHn-205" target="ED42qZIdBEckQJyKbsHn-206" edge="1">
          <mxGeometry relative="1" as="geometry"/>
        </mxCell>
        <mxCell id="ED42qZIdBEckQJyKbsHn-205" value="" style="rounded=0;whiteSpace=wrap;html=1;strokeWidth=12;" parent="ED42qZIdBEckQJyKbsHn-148" vertex="1">
          <mxGeometry x="80" y="670" width="60" height="10" as="geometry"/>
        </mxCell>
        <mxCell id="ED42qZIdBEckQJyKbsHn-255" style="edgeStyle=orthogonalEdgeStyle;rounded=0;orthogonalLoop=1;jettySize=auto;html=1;entryX=0.637;entryY=-0.19;entryDx=0;entryDy=0;entryPerimeter=0;endArrow=openThin;endFill=0;strokeColor=#000000;" parent="ED42qZIdBEckQJyKbsHn-148" source="ED42qZIdBEckQJyKbsHn-206" target="ED42qZIdBEckQJyKbsHn-254" edge="1">
          <mxGeometry relative="1" as="geometry"/>
        </mxCell>
        <mxCell id="ED42qZIdBEckQJyKbsHn-206" value="Сообщить клиенту" style="rounded=0;whiteSpace=wrap;html=1;strokeWidth=1;" parent="ED42qZIdBEckQJyKbsHn-148" vertex="1">
          <mxGeometry x="110" y="710" width="80" height="30" as="geometry"/>
        </mxCell>
        <mxCell id="ED42qZIdBEckQJyKbsHn-256" style="edgeStyle=orthogonalEdgeStyle;rounded=0;orthogonalLoop=1;jettySize=auto;html=1;entryX=0.25;entryY=0;entryDx=0;entryDy=0;endArrow=openThin;endFill=0;strokeColor=#000000;" parent="ED42qZIdBEckQJyKbsHn-148" source="ED42qZIdBEckQJyKbsHn-207" target="ED42qZIdBEckQJyKbsHn-254" edge="1">
          <mxGeometry relative="1" as="geometry"/>
        </mxCell>
        <mxCell id="ED42qZIdBEckQJyKbsHn-207" value="Сообщить ресторану" style="rounded=0;whiteSpace=wrap;html=1;strokeWidth=1;" parent="ED42qZIdBEckQJyKbsHn-148" vertex="1">
          <mxGeometry x="20" y="710" width="80" height="30" as="geometry"/>
        </mxCell>
        <mxCell id="ED42qZIdBEckQJyKbsHn-260" style="edgeStyle=orthogonalEdgeStyle;rounded=0;orthogonalLoop=1;jettySize=auto;html=1;entryX=0.542;entryY=0.016;entryDx=0;entryDy=0;entryPerimeter=0;endArrow=openThin;endFill=0;strokeColor=#000000;" parent="ED42qZIdBEckQJyKbsHn-148" source="ED42qZIdBEckQJyKbsHn-254" target="ED42qZIdBEckQJyKbsHn-197" edge="1">
          <mxGeometry relative="1" as="geometry"/>
        </mxCell>
        <mxCell id="ED42qZIdBEckQJyKbsHn-254" value="" style="rounded=0;whiteSpace=wrap;html=1;strokeWidth=12;" parent="ED42qZIdBEckQJyKbsHn-148" vertex="1">
          <mxGeometry x="80" y="775.95" width="60" height="10" as="geometry"/>
        </mxCell>
        <mxCell id="ED42qZIdBEckQJyKbsHn-270" style="edgeStyle=orthogonalEdgeStyle;rounded=0;orthogonalLoop=1;jettySize=auto;html=1;entryX=0.5;entryY=0;entryDx=0;entryDy=0;endArrow=openThin;endFill=0;strokeColor=#000000;" parent="ED42qZIdBEckQJyKbsHn-84" source="ED42qZIdBEckQJyKbsHn-267" target="ED42qZIdBEckQJyKbsHn-169" edge="1">
          <mxGeometry relative="1" as="geometry"/>
        </mxCell>
        <mxCell id="Fp9BX1nKFDgFE7mG7sT4-14" style="edgeStyle=none;rounded=0;orthogonalLoop=1;jettySize=auto;html=1;entryX=0.5;entryY=0;entryDx=0;entryDy=0;endArrow=classic;endFill=1;exitX=0.509;exitY=1.057;exitDx=0;exitDy=0;exitPerimeter=0;" edge="1" parent="1" source="ED42qZIdBEckQJyKbsHn-264" target="Fp9BX1nKFDgFE7mG7sT4-10">
          <mxGeometry relative="1" as="geometry"/>
        </mxCell>
        <mxCell id="ED42qZIdBEckQJyKbsHn-261" value="Клиент" style="swimlane;fontStyle=1;align=center;verticalAlign=top;childLayout=stackLayout;horizontal=1;startSize=26;horizontalStack=0;resizeParent=1;resizeParentMax=0;resizeLast=0;collapsible=1;marginBottom=0;strokeWidth=1;" parent="1" vertex="1">
          <mxGeometry x="1880" y="-190" width="230" height="160" as="geometry"/>
        </mxCell>
        <mxCell id="ED42qZIdBEckQJyKbsHn-262" value="+ деньги: int&#xa;+ ФИО&#xa;" style="text;strokeColor=none;fillColor=none;align=left;verticalAlign=top;spacingLeft=4;spacingRight=4;overflow=hidden;rotatable=0;points=[[0,0.5],[1,0.5]];portConstraint=eastwest;" parent="ED42qZIdBEckQJyKbsHn-261" vertex="1">
          <mxGeometry y="26" width="230" height="44" as="geometry"/>
        </mxCell>
        <mxCell id="ED42qZIdBEckQJyKbsHn-263" value="" style="line;strokeWidth=1;fillColor=none;align=left;verticalAlign=middle;spacingTop=-1;spacingLeft=3;spacingRight=3;rotatable=0;labelPosition=right;points=[];portConstraint=eastwest;" parent="ED42qZIdBEckQJyKbsHn-261" vertex="1">
          <mxGeometry y="70" width="230" height="8" as="geometry"/>
        </mxCell>
        <mxCell id="ED42qZIdBEckQJyKbsHn-264" value="&#xa;+ Может посмотреть каталог еды ()&#xa;+ Заказать &#xa;+ Оплатить  (Value int)&#xa;+ Получить()&#xa;&#xa;&#xa;" style="text;strokeColor=none;fillColor=none;align=left;verticalAlign=top;spacingLeft=4;spacingRight=4;overflow=hidden;rotatable=0;points=[[0,0.5],[1,0.5]];portConstraint=eastwest;" parent="ED42qZIdBEckQJyKbsHn-261" vertex="1">
          <mxGeometry y="78" width="230" height="82" as="geometry"/>
        </mxCell>
        <mxCell id="Fp9BX1nKFDgFE7mG7sT4-7" style="rounded=0;orthogonalLoop=1;jettySize=auto;html=1;entryX=0;entryY=0.5;entryDx=0;entryDy=0;endArrow=block;endFill=0;exitX=1;exitY=0.5;exitDx=0;exitDy=0;" edge="1" parent="1" source="ED42qZIdBEckQJyKbsHn-273" target="Fp9BX1nKFDgFE7mG7sT4-6">
          <mxGeometry relative="1" as="geometry">
            <mxPoint x="2175" y="30" as="sourcePoint"/>
          </mxGeometry>
        </mxCell>
        <mxCell id="ED42qZIdBEckQJyKbsHn-272" value="Заказ" style="swimlane;fontStyle=1;align=center;verticalAlign=top;childLayout=stackLayout;horizontal=1;startSize=26;horizontalStack=0;resizeParent=1;resizeParentMax=0;resizeLast=0;collapsible=1;marginBottom=0;strokeWidth=1;" parent="1" vertex="1">
          <mxGeometry x="1920" y="560" width="230" height="110" as="geometry"/>
        </mxCell>
        <mxCell id="ED42qZIdBEckQJyKbsHn-273" value="+ Содержание&#xa;+ Адрес доставки&#xa;+ Стоимость: int" style="text;strokeColor=none;fillColor=none;align=left;verticalAlign=top;spacingLeft=4;spacingRight=4;overflow=hidden;rotatable=0;points=[[0,0.5],[1,0.5]];portConstraint=eastwest;" parent="ED42qZIdBEckQJyKbsHn-272" vertex="1">
          <mxGeometry y="26" width="230" height="54" as="geometry"/>
        </mxCell>
        <mxCell id="ED42qZIdBEckQJyKbsHn-274" value="" style="line;strokeWidth=1;fillColor=none;align=left;verticalAlign=middle;spacingTop=-1;spacingLeft=3;spacingRight=3;rotatable=0;labelPosition=right;points=[];portConstraint=eastwest;" parent="ED42qZIdBEckQJyKbsHn-272" vertex="1">
          <mxGeometry y="80" width="230" height="8" as="geometry"/>
        </mxCell>
        <mxCell id="ED42qZIdBEckQJyKbsHn-275" value="&#xa;" style="text;strokeColor=none;fillColor=none;align=left;verticalAlign=top;spacingLeft=4;spacingRight=4;overflow=hidden;rotatable=0;points=[[0,0.5],[1,0.5]];portConstraint=eastwest;" parent="ED42qZIdBEckQJyKbsHn-272" vertex="1">
          <mxGeometry y="88" width="230" height="22" as="geometry"/>
        </mxCell>
        <mxCell id="ED42qZIdBEckQJyKbsHn-276" value="ресторан" style="swimlane;fontStyle=1;align=center;verticalAlign=top;childLayout=stackLayout;horizontal=1;startSize=26;horizontalStack=0;resizeParent=1;resizeParentMax=0;resizeLast=0;collapsible=1;marginBottom=0;strokeWidth=1;" parent="1" vertex="1">
          <mxGeometry x="1590" y="390" width="230" height="130" as="geometry"/>
        </mxCell>
        <mxCell id="ED42qZIdBEckQJyKbsHn-277" value="+ деньги: int" style="text;strokeColor=none;fillColor=none;align=left;verticalAlign=top;spacingLeft=4;spacingRight=4;overflow=hidden;rotatable=0;points=[[0,0.5],[1,0.5]];portConstraint=eastwest;" parent="ED42qZIdBEckQJyKbsHn-276" vertex="1">
          <mxGeometry y="26" width="230" height="26" as="geometry"/>
        </mxCell>
        <mxCell id="ED42qZIdBEckQJyKbsHn-278" value="" style="line;strokeWidth=1;fillColor=none;align=left;verticalAlign=middle;spacingTop=-1;spacingLeft=3;spacingRight=3;rotatable=0;labelPosition=right;points=[];portConstraint=eastwest;" parent="ED42qZIdBEckQJyKbsHn-276" vertex="1">
          <mxGeometry y="52" width="230" height="8" as="geometry"/>
        </mxCell>
        <mxCell id="ED42qZIdBEckQJyKbsHn-279" value="&#xa;+ Принять заказ и оплату(Value int)&#xa;+ Приготовить заказ()&#xa;+ Отправить заказ через курьера()" style="text;strokeColor=none;fillColor=none;align=left;verticalAlign=top;spacingLeft=4;spacingRight=4;overflow=hidden;rotatable=0;points=[[0,0.5],[1,0.5]];portConstraint=eastwest;" parent="ED42qZIdBEckQJyKbsHn-276" vertex="1">
          <mxGeometry y="60" width="230" height="70" as="geometry"/>
        </mxCell>
        <mxCell id="Fp9BX1nKFDgFE7mG7sT4-18" style="edgeStyle=none;rounded=0;orthogonalLoop=1;jettySize=auto;html=1;entryX=0.5;entryY=0;entryDx=0;entryDy=0;endArrow=classic;endFill=1;" edge="1" parent="1" source="ED42qZIdBEckQJyKbsHn-280" target="ED42qZIdBEckQJyKbsHn-272">
          <mxGeometry relative="1" as="geometry"/>
        </mxCell>
        <mxCell id="Fp9BX1nKFDgFE7mG7sT4-21" style="edgeStyle=none;rounded=0;orthogonalLoop=1;jettySize=auto;html=1;endArrow=classic;endFill=1;endSize=6;" edge="1" parent="1" source="ED42qZIdBEckQJyKbsHn-280" target="ED42qZIdBEckQJyKbsHn-264">
          <mxGeometry relative="1" as="geometry"/>
        </mxCell>
        <mxCell id="ED42qZIdBEckQJyKbsHn-280" value="Курьер" style="swimlane;fontStyle=1;align=center;verticalAlign=top;childLayout=stackLayout;horizontal=1;startSize=26;horizontalStack=0;resizeParent=1;resizeParentMax=0;resizeLast=0;collapsible=1;marginBottom=0;strokeWidth=1;" parent="1" vertex="1">
          <mxGeometry x="2080" y="220" width="230" height="158" as="geometry"/>
        </mxCell>
        <mxCell id="ED42qZIdBEckQJyKbsHn-281" value="+ Содержание заказа" style="text;strokeColor=none;fillColor=none;align=left;verticalAlign=top;spacingLeft=4;spacingRight=4;overflow=hidden;rotatable=0;points=[[0,0.5],[1,0.5]];portConstraint=eastwest;" parent="ED42qZIdBEckQJyKbsHn-280" vertex="1">
          <mxGeometry y="26" width="230" height="54" as="geometry"/>
        </mxCell>
        <mxCell id="ED42qZIdBEckQJyKbsHn-282" value="" style="line;strokeWidth=1;fillColor=none;align=left;verticalAlign=middle;spacingTop=-1;spacingLeft=3;spacingRight=3;rotatable=0;labelPosition=right;points=[];portConstraint=eastwest;" parent="ED42qZIdBEckQJyKbsHn-280" vertex="1">
          <mxGeometry y="80" width="230" height="8" as="geometry"/>
        </mxCell>
        <mxCell id="ED42qZIdBEckQJyKbsHn-283" value="+ Доставить заказ()&#xa;" style="text;strokeColor=none;fillColor=none;align=left;verticalAlign=top;spacingLeft=4;spacingRight=4;overflow=hidden;rotatable=0;points=[[0,0.5],[1,0.5]];portConstraint=eastwest;" parent="ED42qZIdBEckQJyKbsHn-280" vertex="1">
          <mxGeometry y="88" width="230" height="70" as="geometry"/>
        </mxCell>
        <mxCell id="Fp9BX1nKFDgFE7mG7sT4-2" value="" style="endArrow=classic;html=1;entryX=1.004;entryY=0.157;entryDx=0;entryDy=0;entryPerimeter=0;exitX=0;exitY=0.75;exitDx=0;exitDy=0;" edge="1" parent="1" source="Fp9BX1nKFDgFE7mG7sT4-3" target="ED42qZIdBEckQJyKbsHn-279">
          <mxGeometry width="50" height="50" relative="1" as="geometry">
            <mxPoint x="2010" y="450" as="sourcePoint"/>
            <mxPoint x="2060" y="400" as="targetPoint"/>
            <Array as="points"/>
          </mxGeometry>
        </mxCell>
        <mxCell id="Fp9BX1nKFDgFE7mG7sT4-3" value="Работает в" style="text;html=1;strokeColor=none;fillColor=none;align=center;verticalAlign=middle;whiteSpace=wrap;rounded=0;" vertex="1" parent="1">
          <mxGeometry x="1910" y="378" width="70" height="32" as="geometry"/>
        </mxCell>
        <mxCell id="Fp9BX1nKFDgFE7mG7sT4-4" value="" style="endArrow=none;html=1;entryX=1;entryY=0.25;entryDx=0;entryDy=0;endFill=0;exitX=-0.005;exitY=0.991;exitDx=0;exitDy=0;exitPerimeter=0;" edge="1" parent="1" source="ED42qZIdBEckQJyKbsHn-281" target="Fp9BX1nKFDgFE7mG7sT4-3">
          <mxGeometry width="50" height="50" relative="1" as="geometry">
            <mxPoint x="2052" y="400" as="sourcePoint"/>
            <mxPoint x="1840.92" y="400.99" as="targetPoint"/>
            <Array as="points"/>
          </mxGeometry>
        </mxCell>
        <mxCell id="Fp9BX1nKFDgFE7mG7sT4-5" value="Еда" style="rounded=0;whiteSpace=wrap;html=1;" vertex="1" parent="1">
          <mxGeometry x="2280" y="560" width="120" height="60" as="geometry"/>
        </mxCell>
        <mxCell id="Fp9BX1nKFDgFE7mG7sT4-6" value="Напитки" style="rounded=0;whiteSpace=wrap;html=1;" vertex="1" parent="1">
          <mxGeometry x="2280" y="669" width="120" height="60" as="geometry"/>
        </mxCell>
        <mxCell id="Fp9BX1nKFDgFE7mG7sT4-8" style="rounded=0;orthogonalLoop=1;jettySize=auto;html=1;endArrow=block;endFill=0;exitX=1;exitY=0.5;exitDx=0;exitDy=0;entryX=0;entryY=0.5;entryDx=0;entryDy=0;" edge="1" parent="1" source="ED42qZIdBEckQJyKbsHn-273" target="Fp9BX1nKFDgFE7mG7sT4-5">
          <mxGeometry relative="1" as="geometry">
            <mxPoint x="2146.2962962962965" y="40" as="sourcePoint"/>
            <mxPoint x="2280" y="-30" as="targetPoint"/>
          </mxGeometry>
        </mxCell>
        <mxCell id="Fp9BX1nKFDgFE7mG7sT4-10" value="диспетчер" style="swimlane;fontStyle=1;align=center;verticalAlign=top;childLayout=stackLayout;horizontal=1;startSize=26;horizontalStack=0;resizeParent=1;resizeParentMax=0;resizeLast=0;collapsible=1;marginBottom=0;strokeWidth=1;" vertex="1" parent="1">
          <mxGeometry x="1590" y="90" width="230" height="120" as="geometry"/>
        </mxCell>
        <mxCell id="Fp9BX1nKFDgFE7mG7sT4-12" value="" style="line;strokeWidth=1;fillColor=none;align=left;verticalAlign=middle;spacingTop=-1;spacingLeft=3;spacingRight=3;rotatable=0;labelPosition=right;points=[];portConstraint=eastwest;" vertex="1" parent="Fp9BX1nKFDgFE7mG7sT4-10">
          <mxGeometry y="26" width="230" height="24" as="geometry"/>
        </mxCell>
        <mxCell id="Fp9BX1nKFDgFE7mG7sT4-13" value="+ Принять заказ()&#xa;+ Передать информацию о заказе()&#xa;&#xa;" style="text;strokeColor=none;fillColor=none;align=left;verticalAlign=top;spacingLeft=4;spacingRight=4;overflow=hidden;rotatable=0;points=[[0,0.5],[1,0.5]];portConstraint=eastwest;" vertex="1" parent="Fp9BX1nKFDgFE7mG7sT4-10">
          <mxGeometry y="50" width="230" height="70" as="geometry"/>
        </mxCell>
        <mxCell id="Fp9BX1nKFDgFE7mG7sT4-20" value="" style="endArrow=diamondThin;html=1;exitX=0.25;exitY=0;exitDx=0;exitDy=0;entryX=0.258;entryY=1.008;entryDx=0;entryDy=0;entryPerimeter=0;endFill=1;endSize=15;" edge="1" parent="1" source="ED42qZIdBEckQJyKbsHn-276" target="Fp9BX1nKFDgFE7mG7sT4-13">
          <mxGeometry width="50" height="50" relative="1" as="geometry">
            <mxPoint x="1690" y="370" as="sourcePoint"/>
            <mxPoint x="1740" y="320" as="targetPoint"/>
          </mxGeometry>
        </mxCell>
        <mxCell id="Fp9BX1nKFDgFE7mG7sT4-23" value="" style="endArrow=classic;html=1;exitX=0.744;exitY=0.992;exitDx=0;exitDy=0;exitPerimeter=0;entryX=0.75;entryY=0;entryDx=0;entryDy=0;" edge="1" parent="1" source="Fp9BX1nKFDgFE7mG7sT4-13" target="ED42qZIdBEckQJyKbsHn-276">
          <mxGeometry width="50" height="50" relative="1" as="geometry">
            <mxPoint x="1760" y="330" as="sourcePoint"/>
            <mxPoint x="1810" y="280" as="targetPoint"/>
          </mxGeometry>
        </mxCell>
      </root>
    </mxGraphModel>
  </diagram>
</mxfile>
